# xmcd
#
# Track frame offsets: 
#        150
#        9855
#        20970
#        35642
#        45170
#        56369
#        65471
#        74553
#        84091
#        99420
#        109180
#        119847
#        134794
#        145936
#        155199
#        163339
#        177802
#        191469
#        200886
#        212189
#
# Disc length: 2961 seconds
#
# Revision: 0
# Processed by: cddbd v1.5.2PL0 Copyright (c) Steve Scherf et al.
# Submitted via: ExactAudioCopy v0.99pb4
#
DISCID=2e0b8f14
DTITLE=Floyd Cramer - The Very Best of Floyd Cramer
DYEAR=1977
DGENRE=Instramental
TTITLE0=Tricky
TTITLE1=Last Date
TTITLE2=My Melody of Love
TTITLE3=Stood Up
TTITLE4=Born Free
TTITLE5=Dallas
TTITLE6=Flip Flop and Bop
TTITLE7=Lovesick Blues
TTITLE8=The Entertainer
TTITLE9=On the Rebound
TTITLE10=San Antonio Rose
TTITLE11=For the Good Times
TTITLE12=Cotton Fields
TTITLE13=Chattanooga Choo Choo
TTITLE14=Hang On
TTITLE15=Unchained melody
TTITLE16=Rhythm of the Rain
TTITLE17=Java
TTITLE18=Canadian Sunset
TTITLE19=Your Last Goodbye
EXTD=
EXTT0=
EXTT1=
EXTT2=
EXTT3=
EXTT4=
EXTT5=
EXTT6=
EXTT7=
EXTT8=
EXTT9=
EXTT10=
EXTT11=
EXTT12=
EXTT13=
EXTT14=
EXTT15=
EXTT16=
EXTT17=
EXTT18=
EXTT19=
PLAYORDER=
